<?xml version="1.0" encoding="UTF-8" ?>
<!DOCTYPE svg PUBLIC "-//W3C//DTD SVG 1.1//EN" "http://www.w3.org/Graphics/SVG/1.1/DTD/svg11.dtd">
<svg width="1150pt" height="1150pt" viewBox="0 0 1150 1150" version="1.1" xmlns="http://www.w3.org/2000/svg">
<path fill="#00ff00" opacity="1.00" d=" M 495.65 20.45 C 548.42 20.32 601.19 20.52 653.97 20.36 C 654.11 72.98 653.93 125.62 654.01 178.25 C 680.35 178.24 706.69 178.27 733.03 178.24 C 733.17 204.69 732.98 231.14 733.18 257.60 C 759.52 257.35 785.87 257.69 812.22 257.48 C 812.10 283.82 812.23 310.16 812.08 336.50 C 838.44 336.55 864.80 336.62 891.16 336.59 C 891.37 442.23 891.17 547.87 891.26 653.51 C 864.88 653.97 838.48 653.65 812.09 653.76 C 811.94 680.06 812.13 706.37 812.09 732.67 C 838.47 732.72 864.86 732.55 891.24 732.77 C 891.25 785.50 891.27 838.23 891.23 890.96 C 917.60 891.24 943.98 891.00 970.35 891.09 C 969.85 970.52 970.53 1049.96 970.08 1129.39 C 917.40 1129.81 864.73 1129.44 812.05 1129.63 C 811.92 1076.70 812.04 1023.77 812.00 970.84 C 785.65 970.77 759.30 970.96 732.96 970.74 C 733.05 997.27 732.98 1023.80 733.00 1050.33 C 679.64 1050.30 626.28 1050.48 572.92 1050.42 C 520.95 1050.20 468.98 1050.47 417.01 1050.42 C 417.05 1023.92 416.88 997.42 417.09 970.92 C 390.68 970.91 364.26 970.91 337.84 970.92 C 337.91 1023.82 337.98 1076.71 337.88 1129.61 C 285.15 1129.51 232.42 1129.66 179.70 1129.58 C 179.86 1050.08 179.62 970.58 179.84 891.09 C 206.16 891.10 232.48 891.26 258.80 890.98 C 259.25 838.21 258.93 785.44 258.92 732.67 C 285.17 732.73 311.41 732.42 337.65 732.68 C 337.91 706.35 337.60 680.01 337.82 653.69 C 311.55 653.74 285.28 653.76 259.02 653.76 C 258.98 548.04 259.01 442.31 259.00 336.59 C 285.28 336.59 311.55 336.57 337.82 336.59 C 337.80 310.29 337.92 283.99 337.75 257.69 C 364.19 257.27 390.64 257.70 417.08 257.39 C 417.13 231.08 417.03 204.76 417.03 178.45 C 443.24 178.18 469.44 178.04 495.65 178.46 C 495.67 125.79 495.68 73.12 495.65 20.45 M 495.99 337.00 C 496.24 361.34 495.95 385.69 496.14 410.03 C 496.13 412.12 495.71 414.18 495.28 416.22 C 489.90 415.37 484.46 415.83 479.04 415.75 C 458.39 415.75 437.74 415.75 417.09 415.75 C 417.11 468.45 416.98 521.15 417.26 573.85 C 443.53 573.42 469.80 573.87 496.07 573.67 C 496.21 600.32 496.18 626.97 496.13 653.62 C 548.72 653.54 601.30 653.59 653.89 653.60 C 653.96 626.96 653.89 600.31 653.92 573.67 C 680.28 573.73 706.63 573.53 732.99 573.78 C 732.82 521.11 732.97 468.43 732.91 415.75 C 706.61 415.76 680.31 415.71 654.00 415.78 C 653.87 389.49 653.87 363.19 653.87 336.90 C 601.24 336.97 548.61 336.83 495.99 337.00 M 496.17 812.09 C 496.16 838.38 496.19 864.67 496.15 890.97 C 548.73 891.32 601.33 891.07 653.92 891.08 C 653.87 864.75 654.02 838.42 653.83 812.09 C 601.27 811.99 548.72 811.95 496.17 812.09 Z" />
<path fill="#00ff00" opacity="1.00" d=" M 495.47 416.95 C 496.90 416.29 498.31 415.32 499.97 415.50 C 525.06 415.90 550.15 415.29 575.24 415.77 C 575.26 442.15 575.12 468.53 575.24 494.91 C 548.75 494.68 522.25 495.10 495.75 494.83 C 495.52 468.87 496.03 442.91 495.47 416.95 Z" />
</svg>
